<svg width="187" height="126" viewBox="0 0 187 126" fill="none" xmlns="http://www.w3.org/2000/svg">
<path d="M19.5109 89.2049L25.8488 41.2139H18.4546L18.667 39.741L26.0612 39.4264L27.1175 31.8474C28.8081 19.1118 34.5116 12.6938 43.806 12.6938C47.8189 12.6938 50.3563 13.9579 52.5723 15.3251L50.672 28.2695H49.0876C49.2999 19.4292 47.5031 15.8513 42.0092 15.8513C34.7212 15.8513 31.7619 22.3778 31.7619 29.322C31.7619 33.3203 33.3463 36.901 35.2466 39.4264H48.8724L48.66 41.2167H35.0342L28.484 89.9455C26.3714 106.259 17.077 111.627 6.51389 113.309L6.30151 112.045C15.4925 108.993 17.6051 103.519 19.5054 89.2077L19.5109 89.2049Z" fill="#0B6607"/>
<path d="M54.8973 75.6284L59.6507 41.2139H52.6785L52.8908 39.6352C63.032 39.741 66.8352 34.1611 69.5794 23.4275H71.27L68.945 39.4236H83.521L83.2052 41.2139H68.7355L63.9821 75.84C63.032 82.787 63.3477 86.7853 67.7853 86.7853C71.7982 86.7853 75.2857 83.522 78.2422 79.8383L79.1924 80.9966C74.7547 87.4173 69.5794 91.7331 63.7697 91.7331C57.1161 91.7331 53.419 86.3648 54.8973 75.6312V75.6284Z" fill="#0B6607"/>
<path d="M89.543 79.6296L93.2401 52.6855C94.2964 45.7386 91.6556 44.8977 87.3242 44.8977L87.5366 43.5306L102.853 39.4265H104.331L98.9436 78.2625C98.2031 83.6307 98.2031 86.997 101.056 86.997C102.956 86.997 104.966 85.3125 107.182 82.4725L108.132 83.6307C105.069 88.1553 101.372 91.5244 96.5124 91.5244C89.8588 91.5244 88.8025 85.2095 89.5402 79.6324L89.543 79.6296ZM102.322 18.271C105.807 18.271 107.919 20.6906 107.919 23.848C107.919 27.4259 105.066 30.3745 101.369 30.3745C97.9879 30.3745 95.6657 27.8491 95.6657 24.6917C95.6657 21.1138 98.6222 18.271 102.319 18.271H102.322Z" fill="#0B6607"/>
<path d="M34.235 98.9557V101.075H38.1053V102.071H34.235V105.237H33.1508V97.9617H38.5189V98.9585H34.235V98.9557Z" fill="black"/>
<path d="M42.8252 99.6323V100.543C41.6878 100.543 40.8802 101.166 40.7852 102.122V105.234H39.7317V99.7576H40.7852V100.807C41.1345 100.086 41.8806 99.6323 42.8252 99.6323Z" fill="black"/>
<path d="M48.4588 101.921V105.237H47.4276V104.485C47.0224 105.056 46.2679 105.365 45.6001 105.365C44.432 105.365 43.5685 104.689 43.5685 103.617C43.5685 102.545 44.5577 101.796 45.7677 101.796C46.3099 101.796 46.8939 101.913 47.4248 102.094V101.924C47.4248 101.236 47.1063 100.504 46.0108 100.504C45.4687 100.504 44.9378 100.715 44.4599 100.96L44.0771 100.186C44.8623 99.7937 45.5553 99.635 46.1617 99.635C47.64 99.635 48.4588 100.568 48.4588 101.924V101.921ZM47.4276 103.519V102.79C46.9805 102.65 46.4719 102.578 45.9298 102.578C45.1977 102.578 44.5801 102.99 44.5801 103.583C44.5801 104.176 45.111 104.535 45.8013 104.535C46.4915 104.535 47.246 104.196 47.4276 103.519Z" fill="black"/>
<path d="M49.4481 99.7605H50.5855L52.2957 104.018L53.9752 99.7605H55.1125L52.7959 105.237H51.8066L49.4481 99.7605Z" fill="black"/>
<path d="M59.8435 103.837L60.503 104.513C60.0139 105.031 59.0582 105.36 58.2814 105.36C56.75 105.36 55.4534 104.163 55.4534 102.478C55.4534 100.793 56.6745 99.6296 58.1947 99.6296C59.8742 99.6296 60.8411 100.899 60.8411 102.859H56.5153C56.6522 103.77 57.3229 104.427 58.2702 104.427C58.8431 104.427 59.5137 104.174 59.8435 103.834V103.837ZM56.5264 102.027H59.8211C59.7038 101.181 59.184 100.565 58.2367 100.565C57.3871 100.565 56.6941 101.136 56.5264 102.027Z" fill="black"/>
<path d="M66.9218 101.751V105.237H65.8907V101.932C65.8907 101.116 65.3709 100.546 64.6248 100.546C63.8787 100.546 63.1996 101.044 63.1158 101.69V105.237H62.0623V99.7604H63.1158V100.554C63.4455 100.014 64.1162 99.6323 64.8595 99.6323C66.0723 99.6323 66.9218 100.512 66.9218 101.751Z" fill="black"/>
<path d="M73.5363 98.9558H71.1443V97.959H77.0127V98.9558H74.6094V105.237H73.5363V98.9558Z" fill="black"/>
<path d="M82.2942 103.837L82.9537 104.513C82.4646 105.031 81.5089 105.36 80.7321 105.36C79.2007 105.36 77.9041 104.163 77.9041 102.478C77.9041 100.793 79.1252 99.6296 80.6454 99.6296C82.3249 99.6296 83.2918 100.899 83.2918 102.859H78.9659C79.1029 103.77 79.7735 104.427 80.7209 104.427C81.2937 104.427 81.9644 104.174 82.2942 103.834V103.837ZM78.9771 102.027H82.2718C82.1544 101.181 81.6347 100.565 80.6873 100.565C79.8378 100.565 79.1448 101.136 78.9771 102.027Z" fill="black"/>
<path d="M84.2196 102.492C84.2196 100.935 85.547 99.6323 87.1202 99.6323C87.9055 99.6323 88.6181 99.9609 89.1406 100.479L88.4281 101.136C88.0983 100.766 87.6205 100.543 87.1091 100.543C86.1087 100.543 85.2815 101.434 85.2815 102.492C85.2815 103.55 86.1114 104.452 87.1202 104.452C87.6316 104.452 88.1207 104.218 88.4588 103.837L89.1714 104.483C88.6404 105.023 87.9278 105.363 87.1091 105.363C85.547 105.363 84.2168 104.048 84.2168 102.492H84.2196Z" fill="black"/>
<path d="M95.1572 101.751V105.237H94.126V101.932C94.126 101.116 93.6062 100.546 92.8601 100.546C92.0302 100.546 91.3399 101.128 91.3399 101.838V105.237H90.2976V97.8337H91.3399V100.576C91.6697 100.025 92.3404 99.6324 93.0949 99.6324C94.3077 99.6324 95.1572 100.512 95.1572 101.751Z" fill="black"/>
<path d="M101.523 101.751V105.237H100.492V101.932C100.492 101.116 99.972 100.546 99.2258 100.546C98.4797 100.546 97.8007 101.044 97.7168 101.69V105.237H96.6633V99.7604H97.7168V100.554C98.0466 100.014 98.7173 99.6323 99.4606 99.6323C100.673 99.6323 101.523 100.512 101.523 101.751Z" fill="black"/>
<path d="M102.736 102.492C102.736 100.935 104.063 99.6323 105.636 99.6323C107.21 99.6323 108.517 100.935 108.517 102.492C108.517 104.048 107.198 105.363 105.636 105.363C104.074 105.363 102.736 104.048 102.736 102.492ZM107.467 102.492C107.467 101.434 106.628 100.543 105.639 100.543C104.65 100.543 103.789 101.434 103.789 102.492C103.789 103.55 104.628 104.452 105.639 104.452C106.651 104.452 107.467 103.561 107.467 102.492Z" fill="black"/>
<path d="M109.753 97.8308H110.795V105.234H109.753V97.8308Z" fill="black"/>
<path d="M112.027 102.492C112.027 100.935 113.355 99.6323 114.928 99.6323C116.501 99.6323 117.809 100.935 117.809 102.492C117.809 104.048 116.49 105.363 114.928 105.363C113.366 105.363 112.027 104.048 112.027 102.492ZM116.758 102.492C116.758 101.434 115.92 100.543 114.931 100.543C113.942 100.543 113.081 101.434 113.081 102.492C113.081 103.55 113.919 104.452 114.931 104.452C115.942 104.452 116.758 103.561 116.758 102.492Z" fill="black"/>
<path d="M124.273 99.7605V104.655C124.273 106.064 123.113 107.058 121.487 107.058C120.562 107.058 119.712 106.752 119.19 106.329L119.603 105.546C120.008 105.928 120.665 106.151 121.325 106.151C122.504 106.151 123.216 105.588 123.216 104.636V103.842C122.78 104.466 122.101 104.839 121.271 104.839C119.827 104.839 118.773 103.759 118.773 102.233C118.773 100.707 119.827 99.6379 121.271 99.6379C122.101 99.6379 122.803 100.031 123.216 100.643V99.7632H124.27L124.273 99.7605ZM123.219 102.227C123.219 101.242 122.518 100.543 121.54 100.543C120.562 100.543 119.871 101.242 119.871 102.227C119.871 103.213 120.562 103.923 121.54 103.923C122.518 103.923 123.219 103.224 123.219 102.227Z" fill="black"/>
<path d="M125.729 98.2123C125.729 97.8838 126.005 97.5886 126.366 97.5886C126.707 97.5886 126.995 97.8866 126.995 98.2123C126.995 98.5381 126.707 98.8472 126.366 98.8472C126.005 98.8472 125.729 98.552 125.729 98.2123ZM125.835 99.7604H126.888V105.237H125.835V99.7604Z" fill="black"/>
<path d="M132.5 103.837L133.159 104.513C132.67 105.031 131.714 105.36 130.937 105.36C129.406 105.36 128.109 104.163 128.109 102.478C128.109 100.793 129.333 99.6296 130.851 99.6296C132.53 99.6296 133.497 100.899 133.497 102.859H129.171C129.311 103.77 129.979 104.427 130.926 104.427C131.499 104.427 132.17 104.174 132.5 103.834V103.837ZM129.185 102.027H132.48C132.363 101.181 131.843 100.565 130.896 100.565C130.046 100.565 129.353 101.136 129.185 102.027Z" fill="black"/>
<path d="M134.361 104.547L134.861 103.795C135.445 104.218 136.074 104.463 136.722 104.463C137.37 104.463 137.764 104.176 137.764 103.753C137.764 103.244 137.2 103.085 136.521 102.895C135.255 102.547 134.629 102.185 134.629 101.297C134.618 100.292 135.459 99.635 136.627 99.635C137.34 99.635 138.063 99.88 138.659 100.27L138.192 101.044C137.661 100.715 137.108 100.534 136.63 100.534C136.088 100.534 135.663 100.768 135.663 101.18C135.663 101.592 136.004 101.732 136.929 102.016C137.831 102.28 138.801 102.578 138.801 103.667C138.801 104.755 137.918 105.362 136.716 105.362C135.909 105.362 135.026 105.076 134.366 104.547H134.361Z" fill="black"/>
<path d="M143.099 97.959H144.172V105.234H143.099V97.959Z" fill="black"/>
<path d="M150.605 101.751V105.237H149.574V101.932C149.574 101.116 149.054 100.546 148.308 100.546C147.562 100.546 146.883 101.044 146.799 101.69V105.237H145.745V99.7604H146.799V100.554C147.129 100.014 147.799 99.6323 148.543 99.6323C149.755 99.6323 150.605 100.512 150.605 101.751Z" fill="black"/>
<path d="M151.815 102.492C151.815 100.935 153.142 99.6323 154.716 99.6323C155.504 99.6323 156.213 99.9609 156.736 100.479L156.023 101.136C155.694 100.766 155.216 100.543 154.704 100.543C153.704 100.543 152.877 101.434 152.877 102.492C152.877 103.55 153.707 104.452 154.716 104.452C155.227 104.452 155.716 104.218 156.054 103.837L156.767 104.483C156.236 105.023 155.523 105.363 154.704 105.363C153.142 105.363 151.812 104.048 151.812 102.492H151.815Z" fill="black"/>
<path d="M180.657 102.859C179.723 101.762 178.793 100.668 177.857 99.5738C177.82 99.5321 177.762 99.5014 177.706 99.4819C175.269 98.6828 172.829 97.8865 170.39 97.0902C170.323 97.0679 170.236 97.0679 170.169 97.0902C167.735 97.8837 165.301 98.6773 162.87 99.4764C162.797 99.5014 162.725 99.5516 162.674 99.61C162.034 100.353 161.397 101.1 160.763 101.849C160.467 102.197 160.173 102.545 159.86 102.915C159.93 102.943 159.975 102.962 160.022 102.976C160.919 103.283 161.819 103.592 162.719 103.892C162.85 103.937 162.895 103.998 162.895 104.137C162.889 105.777 162.895 107.42 162.889 109.06C162.889 109.191 162.926 109.249 163.054 109.291C163.191 109.339 163.325 109.386 163.459 109.43H31.5719V111.808H170.275C170.311 111.803 170.351 111.794 170.381 111.783C170.457 111.755 170.524 111.705 170.599 111.677C172.899 110.881 175.199 110.085 177.499 109.294C177.636 109.247 177.681 109.185 177.681 109.038C177.675 107.403 177.68 105.766 177.672 104.132C177.672 103.993 177.714 103.931 177.848 103.887C178.742 103.589 179.637 103.28 180.528 102.976C180.581 102.957 180.634 102.935 180.69 102.912C180.671 102.879 180.665 102.865 180.657 102.851V102.859ZM162.725 103.152C162.244 102.987 161.763 102.826 161.283 102.662C161.221 102.642 161.162 102.617 161.076 102.584C161.269 102.355 161.445 102.147 161.623 101.938C162.051 101.434 162.484 100.933 162.909 100.426C162.973 100.351 163.026 100.334 163.121 100.365C165.083 101.036 167.048 101.707 169.009 102.375C169.048 102.389 169.088 102.411 169.138 102.433C169.118 102.47 169.107 102.5 169.088 102.522C168.498 103.216 167.908 103.906 167.321 104.602C167.254 104.683 167.196 104.68 167.106 104.65C165.645 104.149 164.183 103.65 162.722 103.149L162.725 103.152ZM170.448 101.292C170.331 101.334 170.23 101.331 170.116 101.292C168.517 100.735 166.916 100.184 165.318 99.6295C165.248 99.6045 165.178 99.5794 165.103 99.5126C165.158 99.4875 165.214 99.4597 165.27 99.4402C166.79 98.9418 168.311 98.4462 169.831 97.9506C169.931 97.9171 170.021 97.8921 170.043 97.7584C170.052 97.7055 170.163 97.6387 170.23 97.6359C170.298 97.6359 170.406 97.6916 170.423 97.7473C170.46 97.8587 170.535 97.8837 170.624 97.9116C172.175 98.4183 173.729 98.9251 175.28 99.4318C175.342 99.4513 175.4 99.4764 175.462 99.4987C175.462 99.5154 175.462 99.5321 175.462 99.5488C175.297 99.6072 175.135 99.6685 174.97 99.7242C173.464 100.245 171.957 100.766 170.451 101.289L170.448 101.292ZM175.255 101.935C175.286 101.941 175.322 101.963 175.353 101.993C175.322 101.963 175.286 101.938 175.255 101.935ZM176.82 108.787C174.9 109.447 172.98 110.113 171.06 110.775C171.016 110.792 170.965 110.803 170.89 110.823V107.172V105.992V103.018C170.907 103.012 170.926 103.007 170.943 103.004C171.164 103.263 171.385 103.519 171.605 103.778C172.066 104.318 172.533 104.859 172.986 105.404C173.07 105.504 173.137 105.513 173.251 105.474C174.447 105.062 175.643 104.658 176.839 104.252C176.87 104.24 176.901 104.235 176.954 104.218C176.96 104.282 176.968 104.332 176.968 104.385C176.968 105.783 176.968 107.183 176.971 108.581C176.971 108.701 176.934 108.751 176.823 108.79L176.82 108.787Z" fill="black"/>
</svg>
